<svg xmlns="http://www.w3.org/2000/svg" viewBox="0 0 400 300" width="400" height="300">
  <rect width="400" height="300" fill="#e2e8f0"/>
  <g transform="translate(155, 90) scale(0.65)" fill="#0055a8" opacity="0.6">
    <path d="M22.7 19l-9.1 9.1-9.1-9.1 1.4-1.4 7.7 7.7 7.7-7.7 1.4 1.4zM12 4c-4.4 0-8 3.6-8 8s3.6 8 8 8 8-3.6 8-8-3.6-8-8-8zm0 14c-3.3 0-6-2.7-6-6s2.7-6 6-6 6 2.7 6 6-2.7 6-6 6z"/>
    <circle cx="12" cy="12" r="2"/>
  </g>
  <text x="200" y="240" text-anchor="middle" fill="#94a3b8" font-family="sans-serif" font-size="14" font-weight="500">Kategorija</text>
</svg>
